<?xml version="1.0" standalone="no"?>
<!DOCTYPE svg PUBLIC "-//W3C//DTD SVG 20010904//EN"
 "http://www.w3.org/TR/2001/REC-SVG-20010904/DTD/svg10.dtd">
<svg version="1.0" xmlns="http://www.w3.org/2000/svg"
 width="765.000000pt" height="765.000000pt" viewBox="0 0 765.000000 765.000000"
 preserveAspectRatio="xMidYMid meet">
<metadata>
Created by potrace 1.11, written by Peter Selinger 2001-2013
</metadata>
<g transform="translate(0.000000,765.000000) scale(0.100000,-0.100000)"
fill="#000000" stroke="none">
<path d="M3900 5346 c0 -2 -20 -60 -45 -130 -25 -71 -45 -130 -45 -132 0 -2
13 -4 29 -4 21 0 32 6 36 20 3 11 9 20 13 21 4 0 30 2 59 4 43 2 52 0 56 -16
4 -14 14 -19 37 -19 22 0 31 4 27 13 -2 6 -28 64 -56 128 -49 109 -54 116 -82
117 -16 0 -29 -1 -29 -2z m69 -158 c1 -5 -15 -8 -34 -8 l-34 0 17 46 17 45 17
-38 c9 -21 17 -41 17 -45z"/>
<path d="M4259 5328 c0 -13 -3 -57 -5 -99 -5 -74 -5 -78 24 -110 27 -30 36
-34 80 -34 59 0 97 18 111 54 6 14 12 64 13 111 3 82 2 85 -20 88 -27 4 -30
-3 -36 -96 -6 -85 -16 -102 -61 -102 -50 0 -58 17 -54 117 l4 88 -27 3 c-23 3
-28 -1 -29 -20z"/>
<path d="M3550 5319 c-25 -4 -66 -10 -93 -14 l-47 -6 5 -52 c10 -95 25 -201
29 -205 3 -2 37 1 76 8 59 10 70 15 65 28 -3 9 -3 13 1 9 4 -4 13 -2 21 5 11
8 12 7 8 -5 -4 -8 -2 -18 4 -22 7 -4 11 4 11 19 0 24 -10 32 -35 26 -5 -1 -32
-4 -60 -6 -47 -4 -50 -2 -51 20 -2 26 17 36 67 36 32 0 37 5 32 33 -4 20 -9
22 -59 19 -52 -4 -54 -3 -54 21 0 22 5 25 62 31 69 7 78 12 69 41 -5 18 -11
20 -51 14z"/>
<path d="M4695 5289 c-8 -25 8 -39 48 -39 32 0 32 -1 11 -110 -17 -91 -14
-110 16 -110 11 0 20 1 21 3 0 1 8 45 18 97 l17 95 45 -3 c41 -2 45 -1 47 23
1 14 -2 25 -6 26 -4 0 -14 2 -22 4 -28 6 -182 35 -185 35 -2 0 -7 -10 -10 -21z"/>
<path d="M3065 5239 c-92 -21 -87 -18 -80 -47 3 -15 8 -40 11 -57 10 -54 35
-169 37 -171 1 -2 20 1 42 6 22 5 56 12 75 15 54 9 84 36 88 78 2 27 -2 41
-17 54 -14 12 -21 29 -21 54 0 62 -50 87 -135 68z m81 -60 c10 -17 -17 -38
-59 -44 -34 -6 -37 -4 -37 19 0 15 7 26 18 29 33 9 71 7 78 -4z m37 -103 c10
-25 -16 -45 -63 -48 -42 -3 -45 -1 -48 24 -3 21 2 27 20 31 50 9 86 7 91 -7z"/>
<path d="M5120 5191 c4 -15 12 -37 18 -47 21 -42 22 -89 2 -142 l-20 -52 26
-10 c14 -6 27 -10 28 -10 2 0 11 28 21 62 18 56 24 65 83 107 57 41 61 47 46
58 -25 19 -35 17 -81 -17 l-40 -29 -13 42 c-15 46 -34 67 -61 67 -15 0 -16 -5
-9 -29z"/>
<path d="M2412 5033 l-63 -26 5 -46 c5 -43 13 -88 51 -286 4 -16 22 -101 41
-189 37 -162 37 -176 19 -356 -10 -100 -18 -208 -17 -230 1 -24 1 -24 -13 -6
-8 10 -21 16 -29 13 -9 -4 -15 -3 -15 1 3 18 -2 32 -12 32 -5 0 -7 -4 -4 -10
6 -9 -8 -15 -29 -11 -5 1 -6 -5 -3 -13 4 -10 0 -14 -13 -11 -10 2 -20 -2 -23
-8 -2 -7 26 -75 64 -153 58 -121 68 -151 73 -214 4 -40 8 -76 11 -79 7 -12 -8
-26 -67 -65 -32 -21 -58 -42 -58 -47 0 -5 -5 -9 -10 -9 -19 0 -136 -112 -190
-180 -19 -25 -37 -47 -40 -50 -34 -30 -166 -275 -195 -360 -1 -3 -7 -18 -13
-33 -7 -15 -11 -31 -10 -35 1 -4 -3 -17 -10 -28 -6 -12 -8 -24 -5 -28 3 -3 1
-6 -6 -6 -7 0 -9 -4 -6 -10 3 -5 -1 -20 -11 -32 -14 -20 -16 -20 -9 -3 4 11 8
29 9 40 2 11 8 30 15 43 6 12 10 22 7 22 -10 0 42 142 92 250 18 40 73 133 82
140 4 3 17 21 31 41 42 62 211 259 288 335 23 23 29 34 18 34 -9 0 -18 -9 -22
-19 -4 -13 -12 -18 -22 -14 -10 4 -14 2 -10 -4 4 -6 0 -16 -8 -23 -8 -7 -15
-9 -15 -5 0 4 -6 2 -13 -4 -8 -6 -18 -7 -23 -3 -4 4 -3 0 4 -10 8 -10 9 -19 3
-22 -5 -3 -11 -1 -13 4 -2 6 -25 -10 -52 -36 -37 -35 -45 -48 -35 -55 13 -7 2
-24 -51 -79 -19 -20 -83 -105 -116 -155 -39 -59 -63 -105 -103 -195 -25 -58
-81 -267 -73 -274 3 -3 0 -6 -7 -6 -7 0 -10 -4 -7 -9 4 -5 2 -21 -4 -36 -8
-20 -7 -26 2 -23 16 6 66 88 67 111 1 9 6 17 12 17 6 0 9 7 5 15 -3 8 -2 15 2
15 4 0 15 14 24 30 9 17 14 30 9 30 -4 0 -13 -12 -20 -26 -6 -15 -14 -24 -17
-21 -13 13 166 356 211 403 5 6 23 29 40 50 35 45 172 186 160 164 -5 -8 -37
-49 -71 -91 -64 -79 -133 -182 -174 -259 -14 -25 -31 -53 -39 -63 -16 -19 -32
-46 -58 -97 -10 -19 -22 -38 -28 -42 -10 -7 -1 -12 17 -9 4 0 -1 -15 -12 -34
-22 -40 -24 -45 -11 -45 4 0 23 35 42 78 38 88 87 173 124 217 l26 30 -27 -50
c-15 -27 -31 -54 -36 -59 -4 -6 -8 -18 -8 -28 0 -10 -4 -18 -10 -18 -5 0 -10
-8 -10 -18 0 -10 -4 -22 -9 -28 -7 -8 -60 -136 -66 -159 -1 -5 -8 -23 -14 -40
-7 -16 -14 -37 -16 -45 -2 -8 -4 -16 -5 -17 -2 -2 -3 -6 -4 -10 -1 -5 -5 -14
-9 -20 -5 -8 -4 -13 2 -13 9 0 14 13 27 60 0 3 11 28 24 55 13 28 23 56 23 63
0 6 3 12 7 12 3 0 12 17 19 38 19 53 110 234 127 253 8 8 14 19 14 23 0 12
106 149 154 199 48 50 176 157 189 157 18 0 2 -21 -60 -82 -91 -87 -129 -130
-191 -213 -29 -38 -57 -75 -62 -82 -6 -7 -10 -16 -10 -22 0 -5 -4 -11 -8 -13
-19 -7 -113 -185 -174 -328 -6 -14 -14 -33 -19 -42 -6 -11 -5 -18 0 -18 5 0
13 10 17 23 22 71 123 260 199 370 126 183 326 392 395 412 28 8 28 8 -55 -60
-76 -62 -99 -85 -91 -92 3 -3 -8 -24 -25 -47 -60 -79 -136 -202 -180 -291 -24
-49 -48 -93 -52 -96 -5 -3 -9 -9 -8 -12 0 -9 -27 -77 -39 -99 -7 -12 -7 -18 0
-18 5 0 12 11 16 25 3 14 11 25 17 25 6 0 8 3 5 6 -7 6 101 218 143 282 16 24
29 46 29 51 0 4 8 16 18 27 9 10 29 37 45 60 15 22 36 50 48 62 11 12 18 22
15 22 -7 0 148 151 172 167 12 9 22 23 22 32 0 14 -2 14 -10 1 -5 -8 -10 -10
-10 -5 0 16 12 28 58 59 23 16 45 26 49 23 3 -4 -2 -9 -11 -13 -9 -3 -16 -11
-16 -17 0 -5 9 -2 19 7 11 10 17 25 14 34 -4 10 -3 13 6 8 7 -5 21 0 32 10 17
16 22 16 30 4 6 -11 3 -19 -13 -30 -13 -8 -36 -27 -52 -42 -16 -16 -32 -28
-35 -28 -12 0 -168 -156 -214 -214 -27 -32 -60 -80 -74 -105 -15 -25 -51 -81
-80 -123 -49 -72 -53 -83 -30 -79 5 1 6 -2 3 -7 -7 -11 -28 -66 -27 -70 1 -1
-6 -16 -15 -33 -8 -17 -17 -40 -19 -50 -2 -11 -11 -27 -20 -35 -9 -9 -14 -23
-10 -32 3 -8 0 -21 -6 -28 -6 -8 -8 -14 -4 -14 4 0 3 -6 -2 -12 -12 -16 -24
-48 -18 -48 4 0 29 52 66 138 10 23 16 42 13 42 -3 0 4 10 16 22 19 21 24 33
21 51 -1 5 3 6 9 2 5 -3 10 -2 10 4 0 5 -3 11 -7 14 -5 2 -3 2 4 1 6 -2 28 20
47 49 65 94 71 102 79 105 10 5 9 32 -1 32 -5 0 -17 -16 -28 -35 -10 -19 -22
-35 -26 -35 -5 0 -8 -6 -8 -14 0 -8 -3 -16 -7 -18 -5 -1 -16 -16 -25 -33 -9
-16 -22 -31 -29 -34 -7 -2 -6 6 5 25 9 16 20 40 26 54 18 46 65 123 75 122 12
-1 55 38 55 50 0 5 -11 -4 -25 -19 -13 -15 -25 -23 -25 -17 0 13 49 60 58 56
4 -2 8 2 11 9 2 8 -1 9 -10 4 -8 -5 -11 -4 -6 1 5 5 16 9 25 9 10 0 16 7 16
17 -1 10 2 16 5 13 4 -2 50 37 102 88 52 51 103 99 114 107 79 61 96 72 102
66 3 -3 4 -7 2 -9 -84 -55 -251 -211 -331 -309 -15 -18 -36 -44 -47 -57 -23
-26 -26 -38 -11 -43 8 -3 -71 -142 -100 -175 -6 -7 -9 -14 -8 -15 1 -2 -6 -14
-15 -28 -9 -14 -18 -35 -20 -45 -2 -11 -9 -31 -17 -45 -8 -14 -13 -28 -12 -32
1 -5 -3 -8 -9 -8 -5 0 -8 -4 -5 -8 3 -5 -3 -22 -13 -39 -15 -23 -16 -30 -5
-30 8 0 12 2 9 5 -2 3 13 37 35 77 21 40 36 76 33 79 -4 3 -1 6 5 6 7 0 12 7
12 15 0 8 4 15 9 15 5 0 12 11 15 24 5 22 90 144 109 157 5 4 6 12 2 18 -18
30 340 421 385 421 18 0 10 -10 -72 -91 -46 -44 -111 -107 -145 -141 -57 -54
-74 -78 -58 -78 3 0 17 12 31 28 14 15 21 19 16 9 -8 -18 -59 -81 -95 -119
-10 -11 -16 -22 -14 -25 6 -5 -28 -72 -68 -133 -67 -105 -104 -170 -98 -170 5
0 2 -4 -5 -9 -11 -7 -10 -9 3 -14 9 -4 13 -3 10 3 -3 6 1 10 9 10 9 0 16 5 16
11 0 5 -5 7 -11 4 -10 -7 9 34 22 45 3 3 22 32 42 66 20 34 55 81 78 105 38
41 36 28 -3 -15 -10 -11 -18 -23 -18 -28 0 -19 18 -4 52 45 60 86 131 166 188
212 24 20 24 20 10 0 -8 -11 -28 -34 -45 -51 -49 -50 -88 -96 -119 -139 -16
-22 -34 -45 -40 -52 -25 -28 -34 -40 -45 -62 -7 -12 -15 -20 -18 -18 -2 3 1
15 7 27 23 42 3 29 -27 -18 -44 -68 -49 -79 -26 -57 11 11 19 23 17 26 -2 4 3
9 11 13 8 3 15 3 15 0 0 -12 -35 -64 -43 -64 -4 0 -5 -4 -2 -10 3 -5 1 -10 -4
-10 -6 0 -11 5 -11 10 0 6 -4 10 -8 10 -17 0 -8 -26 9 -27 11 -1 27 13 41 35
91 151 326 397 449 471 21 12 39 27 39 31 0 4 14 13 30 20 17 7 30 17 30 23 0
7 5 6 13 -2 9 -10 9 -15 0 -18 -6 -2 -53 -34 -105 -70 -88 -63 -247 -213 -296
-278 -42 -57 -120 -182 -127 -204 -3 -11 -11 -21 -17 -21 -6 0 -8 -3 -5 -7 4
-3 3 -11 -1 -18 -6 -10 8 7 38 43 6 6 8 12 5 12 -6 0 33 60 45 70 4 3 18 22
32 42 13 21 28 35 33 30 5 -4 5 -1 1 6 -4 6 -1 19 6 26 7 8 38 43 68 78 30 36
66 73 80 83 l25 18 -24 -26 c-14 -15 -22 -29 -19 -32 2 -3 18 10 35 27 88 96
257 233 273 223 6 -3 -22 -31 -61 -61 -137 -106 -264 -231 -352 -348 -33 -45
-63 -83 -66 -86 -24 -21 -31 -39 -20 -46 7 -4 9 -3 5 4 -3 6 0 14 7 19 7 4 31
31 53 58 89 113 193 220 308 318 84 71 184 142 192 135 2 -3 -31 -36 -73 -74
-148 -132 -213 -196 -207 -205 3 -5 -3 -6 -12 -2 -14 5 -16 3 -10 -12 4 -12 0
-24 -14 -37 -11 -10 -20 -14 -20 -9 0 6 8 14 17 20 10 5 15 12 12 15 -3 3 -16
-5 -29 -19 -13 -14 -18 -25 -12 -25 7 0 12 -5 12 -11 0 -6 -8 -8 -17 -5 -13 3
-30 -12 -61 -52 l-44 -57 51 55 c28 30 51 50 51 43 0 -6 -6 -18 -12 -25 -29
-31 -58 -78 -48 -78 5 0 10 3 10 8 0 6 37 51 104 125 14 15 23 27 20 27 -3 0
1 6 8 14 7 8 16 12 21 9 4 -2 7 2 7 9 0 21 178 198 199 198 5 0 11 4 13 8 5
12 87 66 136 90 29 14 40 16 32 6 -7 -7 -16 -14 -21 -14 -7 0 -132 -82 -149
-98 -3 -3 0 -7 6 -9 6 -2 -28 -41 -76 -86 -48 -45 -88 -87 -89 -93 0 -6 -12
-19 -25 -30 -14 -10 -23 -21 -20 -26 3 -4 1 -8 -4 -8 -5 0 -14 -12 -21 -27 -8
-19 5 -8 41 32 98 109 198 202 232 214 6 2 13 7 16 10 3 4 18 15 34 25 23 14
26 20 15 28 -11 8 -10 9 3 5 16 -6 113 37 124 54 9 16 -10 10 -51 -16 -78 -48
-58 -24 25 30 47 30 89 55 93 55 5 0 21 8 35 19 15 10 56 28 92 40 36 12 72
25 80 28 8 3 21 7 29 9 8 1 18 9 22 16 7 10 9 10 9 -1 0 -11 4 -10 16 5 8 10
13 13 9 7 -4 -9 -1 -11 9 -7 9 3 14 10 11 14 -3 4 2 11 11 14 12 5 15 2 10
-11 -5 -16 -5 -16 6 -2 12 14 54 31 83 34 6 0 15 3 20 6 6 4 18 5 28 4 9 -2
17 0 17 4 0 4 6 8 13 8 6 0 30 3 52 6 22 3 60 9 85 12 25 3 51 8 58 10 6 3 12
-1 12 -8 0 -8 3 -8 9 2 5 7 13 11 19 7 6 -3 13 -2 16 3 9 14 209 3 234 -13 7
-4 12 -1 12 6 0 9 3 9 10 -2 8 -13 11 -13 27 3 14 14 15 17 3 18 -8 1 -19 1
-24 0 -5 -1 -12 3 -16 9 -4 6 -17 12 -28 13 -12 1 -22 6 -22 11 0 5 -3 6 -7 3
-3 -4 -12 -2 -20 4 -9 8 -13 8 -13 0 0 -7 -8 -8 -26 -1 -14 6 -29 8 -34 5 -5
-3 -11 -1 -14 3 -3 5 -21 8 -41 5 -19 -2 -35 0 -35 5 0 4 8 8 18 9 9 1 29 4
45 7 18 3 25 1 21 -6 -5 -7 -1 -9 9 -5 10 4 17 1 17 -6 0 -8 4 -6 10 3 5 8 10
10 10 4 0 -5 10 -10 23 -10 33 0 107 -26 101 -35 -3 -5 2 -6 11 -2 10 3 21 0
25 -8 5 -7 12 -10 17 -5 6 6 -20 29 -37 31 -20 3 -80 31 -80 37 0 10 14 10 24
1 3 -4 17 -8 29 -10 22 -3 138 -38 167 -50 8 -3 18 -7 23 -8 4 -2 9 -4 12 -5
3 -1 8 -3 13 -5 22 -6 48 -20 57 -31 6 -7 24 -16 40 -19 23 -5 26 -4 15 4 -10
7 -11 11 -3 11 7 0 17 -9 23 -20 6 -11 19 -20 30 -20 10 0 29 -4 42 -9 29 -12
61 -24 68 -26 19 -4 91 -31 120 -43 19 -9 41 -17 49 -18 8 -2 18 -9 22 -16 5
-7 9 -9 9 -5 0 9 303 -144 308 -155 2 -5 10 -8 18 -8 8 0 14 -5 14 -12 0 -6 3
-9 6 -6 3 4 21 -4 40 -17 19 -13 48 -30 64 -37 17 -7 30 -16 30 -20 0 -5 5 -8
10 -8 21 0 9 18 -22 35 -59 30 -92 50 -112 68 -11 9 -25 17 -30 17 -11 0 -65
39 -55 40 3 0 32 -13 64 -30 32 -16 65 -30 72 -30 7 0 13 -4 13 -8 0 -8 61
-34 67 -28 3 2 -95 59 -107 62 -3 0 -49 22 -102 47 -53 26 -148 68 -210 93
-62 25 -133 55 -158 66 -95 42 -162 68 -252 99 -21 7 -38 17 -38 23 0 5 -3 7
-6 3 -8 -8 -65 13 -59 23 3 4 -3 6 -13 3 -11 -2 -53 7 -95 21 -42 14 -89 28
-104 30 -15 3 -48 11 -73 19 -25 7 -57 12 -72 12 -16 -1 -28 2 -28 5 0 3 -8 6
-17 6 -10 0 -38 4 -63 8 -61 10 -96 15 -155 22 -69 8 -456 10 -461 3 -2 -4
-15 -5 -29 -4 -17 2 -25 -2 -25 -12 0 -13 3 -13 15 -3 11 9 15 9 15 1 0 -7 5
-9 13 -4 6 4 49 8 95 8 69 1 82 -1 82 -15 0 -12 8 -16 28 -15 15 1 32 3 37 6
14 8 174 4 182 -4 3 -4 -18 -7 -48 -8 -30 0 -62 -2 -72 -4 -10 -2 -51 -6 -90
-10 -40 -3 -73 -10 -75 -15 -2 -5 -13 -5 -28 0 -17 7 -23 7 -19 0 3 -6 -1 -10
-10 -10 -9 0 -14 4 -11 8 3 5 -1 9 -8 9 -8 0 -12 -6 -10 -12 3 -6 -2 -12 -10
-12 -8 0 -13 3 -11 7 2 4 -2 7 -9 7 -8 0 -12 -6 -9 -13 3 -7 -8 -15 -26 -19
-17 -3 -32 -6 -33 -5 -2 1 -15 -3 -30 -9 -18 -7 -28 -7 -28 -1 0 6 3 10 8 11
65 7 117 28 64 26 -18 -1 -32 -4 -32 -8 0 -3 -6 -6 -12 -7 -7 0 -35 -3 -63 -6
-43 -5 -46 -4 -20 5 17 5 38 12 48 14 9 2 21 6 25 9 9 5 29 9 107 22 22 3 47
8 55 9 8 2 32 4 53 4 20 1 37 6 37 12 0 11 -87 6 -184 -12 -34 -6 -72 -13 -86
-15 -41 -5 -59 -10 -66 -16 -3 -4 -13 -4 -21 -1 -10 4 -14 0 -11 -13 2 -12 -4
-20 -17 -22 -11 -3 -31 -9 -45 -15 -14 -6 -28 -11 -32 -12 -5 -2 -10 -4 -13
-5 -3 -1 -8 -3 -12 -5 -52 -14 -62 -18 -57 -26 3 -5 -2 -6 -10 -3 -9 3 -16 1
-16 -5 0 -6 -6 -8 -12 -6 -7 3 -35 -6 -62 -20 -62 -32 -87 -34 -61 -5 10 11
24 20 32 20 7 0 13 4 13 8 0 9 78 37 93 34 4 -1 7 2 7 7 0 6 10 8 23 6 21 -4
21 -4 3 10 -21 16 -10 21 13 6 9 -6 24 -6 38 0 24 9 78 21 100 22 7 0 10 4 7
8 -6 10 -56 1 -101 -17 -18 -7 -35 -9 -38 -5 -4 8 22 21 49 25 5 0 11 6 13 13
2 6 -35 -4 -84 -24 -48 -19 -96 -37 -105 -40 -10 -3 -18 -10 -18 -17 0 -6 -5
-4 -10 4 -9 13 -10 13 -10 0 0 -9 -8 -16 -17 -17 -10 -1 -29 -5 -43 -9 -23 -7
-24 -6 -10 10 11 15 187 106 203 106 3 0 22 8 43 17 22 9 44 18 49 19 6 1 37
11 70 22 65 22 125 37 138 34 4 -1 7 5 7 13 0 12 -4 13 -19 6 -10 -6 -34 -11
-52 -13 -19 -1 -39 -5 -45 -10 -6 -4 -19 -9 -30 -11 -10 -1 -23 -5 -29 -8 -5
-3 -31 -12 -58 -19 -26 -7 -50 -17 -53 -21 -3 -5 -13 -9 -22 -9 -9 0 -65 -24
-125 -54 l-107 -54 -16 22 c-13 19 -13 22 7 39 12 9 27 17 34 17 6 0 26 7 44
16 17 8 55 24 83 34 29 10 54 24 57 32 3 10 1 10 -10 2 -8 -6 -27 -15 -44 -19
-38 -10 -34 -9 -70 -24 -16 -7 -34 -14 -40 -16 -5 -1 -27 -10 -48 -19 -46 -20
-45 -22 -104 89 -90 167 -188 411 -256 637 -32 103 -36 133 -42 265 -6 171
-25 310 -55 406 -11 37 -22 67 -23 67 -1 -1 -30 -13 -65 -27z m163 -1025 c25
-83 114 -306 154 -386 27 -54 30 -66 19 -80 -11 -15 -11 -15 2 -5 13 10 18 8
28 -7 10 -17 8 -22 -21 -36 -17 -9 -41 -24 -51 -33 -16 -13 -18 -13 -12 -1 4
9 2 8 -7 -2 -16 -20 -32 -25 -21 -6 5 7 3 8 -5 4 -7 -5 -10 -14 -7 -21 5 -13
-22 -30 -32 -20 -3 3 1 5 9 5 10 1 9 3 -3 11 -34 19 -21 48 28 70 26 11 45 22
42 25 -3 2 -18 -1 -34 -7 -16 -7 -32 -12 -36 -11 -5 1 -8 -3 -8 -9 0 -5 -5 -7
-10 -4 -8 5 -7 11 1 21 6 7 15 11 20 8 5 -3 9 -1 9 4 0 4 16 14 35 22 19 8 35
18 35 22 0 5 4 7 9 3 5 -3 12 -1 16 4 9 16 -26 5 -88 -28 -40 -21 -59 -27 -62
-18 -2 7 -16 44 -31 82 -23 61 -26 82 -24 170 1 55 4 116 5 135 2 19 4 61 4
93 1 31 5 57 9 57 5 0 17 -28 27 -62z m1205 -358 c0 -5 -5 -10 -11 -10 -5 0
-7 5 -4 10 3 6 8 10 11 10 2 0 4 -4 4 -10z m34 -2 c-3 -4 -9 -8 -15 -8 -5 0
-9 4 -9 8 0 5 7 9 15 9 8 0 12 -4 9 -9z m211 -18 c3 -5 1 -10 -4 -10 -6 0 -11
5 -11 10 0 6 2 10 4 10 3 0 8 -4 11 -10z m122 -25 c4 -4 -2 -5 -14 -2 -13 3
-26 1 -29 -4 -3 -5 6 -9 20 -9 14 0 28 5 31 10 10 17 23 11 19 -7 -4 -15 -18
-18 -87 -19 -45 0 -112 -3 -150 -7 -69 -7 -264 -44 -279 -53 -5 -3 -25 -8 -44
-10 -20 -2 -45 -9 -55 -15 -11 -5 -19 -6 -19 -1 0 6 9 12 20 15 11 3 23 6 25
7 3 0 24 8 47 16 24 9 48 17 53 18 6 1 15 5 21 8 25 16 198 36 336 39 21 1 35
5 32 10 -3 5 1 6 9 3 8 -3 18 -1 21 4 7 12 32 10 43 -3z m83 1 c0 -2 -9 -6
-20 -9 -11 -3 -20 -1 -20 4 0 5 9 9 20 9 11 0 20 -2 20 -4z m77 -61 c25 -3 42
-9 39 -13 -11 -11 -36 -11 -36 0 0 6 -7 4 -17 -3 -15 -12 -16 -12 -8 1 7 13 6
13 -7 2 -10 -8 -19 -9 -22 -3 -4 5 -16 8 -29 5 -12 -3 -57 -7 -100 -9 -84 -5
-126 -11 -135 -20 -3 -3 -15 3 -26 12 -20 17 -20 17 -7 1 12 -16 11 -18 -10
-18 -13 0 -73 -14 -134 -30 -60 -17 -117 -32 -125 -35 -8 -2 -15 -4 -15 -5 0
-1 -13 -4 -30 -6 -16 -3 -32 -9 -35 -13 -3 -5 -21 -7 -40 -6 -29 3 -90 -17
-132 -42 -5 -2 -8 1 -8 7 0 14 108 64 183 85 35 10 55 21 51 27 -5 7 -2 8 5 4
7 -5 18 0 26 10 8 11 15 15 15 9 0 -5 5 -3 11 5 9 13 10 12 5 -3 -3 -10 -2
-15 3 -12 5 3 12 1 15 -4 5 -8 -13 -17 -54 -26 -27 -6 -120 -42 -127 -49 -12
-12 14 -6 75 18 34 14 62 22 62 20 0 -3 9 0 21 6 18 10 35 15 76 24 7 1 15 5
19 8 3 4 12 4 19 2 7 -3 16 3 19 13 6 14 4 15 -5 6 -6 -6 -18 -9 -25 -6 -8 3
-14 0 -14 -7 0 -9 -4 -9 -17 1 -11 10 -14 10 -9 1 5 -8 1 -11 -13 -9 -11 2
-23 6 -26 9 -7 6 38 20 75 24 14 1 25 3 25 4 0 3 47 10 125 18 84 9 270 7 337
-3z m-738 -9 c-2 -2 -27 -15 -56 -30 -38 -19 -51 -22 -47 -11 4 8 7 15 8 15 0
0 19 7 41 15 39 14 62 19 54 11z m-239 -20 c0 -2 -7 -7 -16 -10 -8 -3 -12 -2
-9 4 6 10 25 14 25 6z m-10 -46 c0 -3 -31 -18 -68 -35 -37 -16 -69 -32 -72
-35 -19 -20 -62 -32 -81 -24 -20 9 -17 13 35 38 31 15 62 29 69 31 47 12 58
19 53 34 -6 15 -5 15 6 0 7 -9 19 -14 26 -11 10 3 10 7 0 20 -12 14 -11 14 10
1 12 -8 22 -16 22 -19z m1404 22 c3 -5 -1 -9 -9 -9 -8 0 -12 4 -9 9 3 4 7 8 9
8 2 0 6 -4 9 -8z m-1684 -7 c0 -2 -10 -9 -22 -15 -22 -11 -22 -10 -4 4 21 17
26 19 26 11z m105 -27 c-7 -16 -82 -58 -90 -50 -4 4 52 41 92 61 1 1 0 -5 -2
-11z m364 -23 c-2 -2 -15 -5 -29 -8 -14 -2 -19 -2 -12 0 7 3 10 9 7 14 -3 5 1
6 9 3 10 -4 16 -1 17 7 0 11 2 11 6 1 3 -7 3 -15 2 -17z m-669 6 c0 -5 -17
-22 -38 -38 -56 -41 -148 -120 -214 -184 -32 -30 -58 -51 -58 -46 0 15 232
237 280 267 19 12 30 12 30 1z m463 -16 c-6 -17 -132 -79 -141 -70 -3 3 -3 7
-1 9 5 4 142 76 146 76 1 0 0 -7 -4 -15z m-833 -45 c0 -5 -75 -85 -167 -177
-157 -158 -176 -169 -75 -45 24 29 51 62 60 74 9 12 50 55 90 95 66 65 92 80
92 53z m-180 0 c0 -5 -5 -10 -11 -10 -5 0 -7 5 -4 10 3 6 8 10 11 10 2 0 4 -4
4 -10z m-51 -47 c-28 -35 -60 -65 -65 -60 -7 6 58 77 70 77 4 0 2 -8 -5 -17z
m241 14 c0 -2 -10 -12 -22 -23 l-23 -19 19 23 c18 21 26 27 26 19z m986 -9 c4
-7 3 -8 -4 -4 -7 4 -12 2 -12 -5 0 -7 -3 -10 -6 -6 -6 5 3 27 11 27 2 0 7 -5
11 -12z m-532 -7 c3 -4 -22 -28 -55 -51 -34 -23 -56 -46 -50 -49 6 -4 -49 -68
-125 -146 -120 -124 -130 -133 -95 -79 37 56 95 116 180 187 18 15 31 31 27
34 -3 4 -19 -5 -34 -18 -52 -48 -67 -54 -33 -14 32 37 45 49 112 98 13 9 33
24 44 32 24 17 23 17 29 6z m491 -10 c-3 -6 -20 -17 -38 -25 l-32 -16 28 25
c28 24 54 34 42 16z m-439 -36 c3 -10 -22 -30 -136 -108 -30 -22 -58 -44 -62
-50 -6 -9 -8 -9 -8 0 0 6 39 48 88 92 80 75 111 92 118 66z m-26 -58 c0 -2
-10 -12 -22 -23 l-23 -19 19 23 c18 21 26 27 26 19z"/>
<path d="M2715 3530 c3 -5 8 -10 11 -10 2 0 4 5 4 10 0 6 -5 10 -11 10 -5 0
-7 -4 -4 -10z"/>
<path d="M3875 3510 c-3 -5 -1 -10 4 -10 6 0 11 5 11 10 0 6 -2 10 -4 10 -3 0
-8 -4 -11 -10z"/>
<path d="M5754 4883 c-21 -38 -48 -84 -61 -103 -13 -19 -23 -40 -23 -47 0 -15
141 -93 169 -93 34 0 71 43 71 83 0 21 6 37 14 40 20 8 31 70 17 96 -10 17
-126 91 -144 91 -3 0 -23 -30 -43 -67z m140 -51 c10 -17 -12 -35 -35 -28 -40
11 -62 32 -54 55 l6 21 39 -20 c21 -11 41 -23 44 -28z m-44 -103 c7 -12 5 -21
-6 -30 -13 -11 -23 -9 -60 11 -24 14 -44 26 -44 27 0 1 5 13 11 27 l12 25 39
-22 c22 -12 43 -29 48 -38z"/>
<path d="M4442 4854 c-45 -18 -74 -69 -68 -117 7 -60 58 -84 119 -56 64 29 82
156 24 175 -36 12 -42 12 -75 -2z"/>
<path d="M1977 4718 c-55 -19 -58 -22 -52 -47 12 -51 78 -208 145 -346 75
-157 76 -160 86 -265 6 -75 13 -96 21 -72 3 8 11 5 24 -10 10 -13 18 -18 19
-11 0 6 -4 15 -10 18 -5 3 -10 16 -9 28 0 20 2 19 10 -5 6 -15 16 -25 22 -22
7 2 22 -17 36 -46 17 -37 27 -47 36 -40 6 5 16 6 20 2 5 -4 5 -1 1 6 -7 11 5
17 27 13 5 -1 6 3 3 8 -8 12 20 34 33 26 7 -3 8 0 5 9 -3 9 -11 13 -17 9 -6
-3 -7 -1 -3 5 8 14 -6 42 -123 247 -50 87 -91 162 -91 166 0 13 -68 232 -90
293 -12 31 -24 56 -28 55 -4 0 -33 -10 -65 -21z m337 -726 c3 -5 -1 -9 -9 -9
-8 0 -12 4 -9 9 3 4 7 8 9 8 2 0 6 -4 9 -8z m2 -43 c3 -6 1 -15 -5 -20 -6 -5
-9 -6 -6 -3 3 4 0 13 -6 21 -8 9 -8 13 -1 13 6 0 14 -5 18 -11z"/>
<path d="M6163 4640 c-1 -75 -3 -82 -37 -123 -42 -51 -44 -62 -15 -77 22 -12
22 -12 71 57 18 26 37 36 101 54 l78 23 -21 20 c-18 18 -24 19 -65 8 -63 -17
-63 -17 -58 37 3 42 0 52 -19 65 -12 9 -25 16 -28 16 -3 0 -6 -36 -7 -80z"/>
<path d="M3937 4590 c-23 -14 -53 -43 -67 -63 -28 -42 -47 -43 -42 -4 2 18 -5
35 -22 52 -50 50 -125 23 -193 -70 l-21 -30 7 40 c4 22 6 45 4 51 -3 8 -122 8
-129 1 -1 -1 -5 -33 -8 -72 -4 -38 -10 -92 -13 -120 -3 -27 -8 -75 -12 -105
-5 -49 -8 -55 -27 -52 -18 2 -23 -4 -29 -35 -11 -59 -56 -195 -73 -220 -34
-53 -43 16 -44 340 l0 228 -30 -7 c-38 -8 -61 -12 -70 -13 -5 -1 -8 -15 -8
-32 l0 -32 -25 26 c-48 48 -121 39 -163 -21 -65 -90 -92 -211 -88 -387 4 -137
19 -202 60 -258 52 -71 158 -39 199 61 38 94 36 89 36 65 1 -12 8 -38 17 -57
40 -83 111 -68 162 33 25 50 31 56 36 39 3 -12 1 -27 -3 -32 -17 -22 3 -42 39
-40 19 1 48 2 64 3 23 1 26 4 17 15 -8 10 -8 16 3 25 8 7 17 43 22 84 4 40 8
74 9 77 1 3 5 34 9 70 21 170 80 320 127 320 15 0 19 -7 19 -38 0 -42 -15
-175 -30 -267 -5 -33 -12 -79 -14 -102 -3 -22 -7 -52 -10 -65 -3 -12 -7 -42
-11 -66 l-5 -43 66 2 c56 2 67 5 74 23 8 19 19 90 35 231 10 77 43 211 66 264
24 57 61 96 83 88 23 -9 20 -65 -10 -187 -34 -137 -39 -170 -39 -257 0 -57 5
-78 21 -100 70 -95 178 -48 253 110 17 37 31 73 31 80 0 6 5 19 11 27 8 12 9
10 4 -7 -3 -13 -7 -58 -7 -101 -1 -119 28 -162 109 -162 66 0 126 57 185 177
17 34 31 63 32 63 0 0 1 -39 1 -88 0 -69 4 -94 20 -121 84 -142 257 -91 423
124 17 22 20 24 12 7 -39 -79 -53 -201 -29 -240 41 -65 139 -54 222 24 l33 32
-10 -50 c-19 -94 36 -140 120 -100 28 14 42 27 38 34 -5 7 -3 8 5 3 15 -8 64
36 153 138 47 55 57 71 47 83 -19 23 -33 16 -83 -42 -54 -62 -141 -134 -161
-134 -12 0 -12 6 0 39 16 47 116 237 198 379 33 57 58 104 56 106 -2 1 -24 10
-49 19 l-45 18 -22 -28 c-23 -28 -23 -28 -23 -5 0 78 -91 110 -179 62 -50 -26
-120 -97 -180 -181 -42 -60 -49 -65 -65 -53 -17 12 -23 7 -61 -44 -83 -114
-172 -168 -234 -143 -35 15 -61 64 -61 115 0 104 63 259 130 320 93 84 125 -2
46 -122 l-35 -51 39 -31 c21 -16 43 -30 49 -30 7 0 28 34 47 75 80 168 45 288
-86 288 -95 0 -186 -80 -256 -225 -28 -56 -43 -77 -54 -73 -11 3 -26 -18 -55
-76 -49 -99 -99 -161 -128 -157 -11 2 -22 12 -23 23 -7 44 32 213 105 460 12
38 21 74 21 80 0 5 -29 11 -64 13 l-63 3 -26 -83 c-14 -46 -35 -117 -48 -158
-12 -41 -23 -77 -25 -79 -2 -2 -10 2 -18 8 -18 15 -21 9 -60 -101 -42 -118
-98 -185 -122 -146 -15 23 -5 119 25 245 35 147 44 227 30 277 -18 65 -92 81
-162 36z m1003 -205 c7 -9 8 -15 2 -15 -5 0 -12 7 -16 15 -3 8 -4 15 -2 15 2
0 9 -7 16 -15z m-1831 -4 c31 -20 47 -209 27 -310 -31 -149 -77 -202 -109
-123 -31 75 -15 350 23 423 11 20 36 24 59 10z m2270 -93 c28 -75 -128 -331
-237 -390 -21 -11 -26 -10 -37 6 -11 15 -11 26 1 67 27 91 108 224 181 296 47
48 79 55 92 21z"/>
<path d="M5680 4078 c-68 -90 -147 -188 -176 -218 -56 -60 -124 -147 -124
-159 0 -8 95 -61 109 -61 5 0 51 53 102 118 159 199 244 279 321 300 44 12 60
0 47 -35 -5 -13 -64 -80 -132 -150 -175 -182 -211 -264 -148 -335 26 -30 35
-33 83 -32 66 1 128 31 229 112 99 78 107 88 87 109 -15 14 -23 10 -89 -43
-82 -65 -132 -94 -165 -94 -60 0 -22 71 114 211 133 138 175 197 175 250 0 49
-23 76 -72 86 -48 9 -62 10 -86 2 -11 -3 -33 -9 -48 -13 l-29 -7 26 34 25 33
-55 27 c-30 15 -58 27 -62 27 -4 0 -64 -73 -132 -162z"/>
<path d="M2174 3968 c-4 -7 -8 -61 -8 -120 -1 -89 1 -105 12 -91 11 15 12 15
12 0 0 -9 -7 -20 -15 -24 -8 -5 -15 -24 -16 -43 -3 -40 -33 -174 -55 -240 -20
-59 -74 -160 -86 -160 -5 0 -6 -5 -2 -12 4 -7 3 -8 -5 -4 -9 6 -9 11 0 22 10
12 9 13 -5 8 -9 -3 -16 -10 -16 -14 0 -21 -84 -131 -110 -145 -41 -21 -44 -19
-23 15 9 17 21 30 25 30 4 0 8 5 8 10 0 6 9 20 20 32 11 12 20 26 20 32 0 13
-7 5 -69 -77 -28 -37 -51 -64 -51 -59 0 10 50 103 59 112 3 3 15 21 25 40 10
19 15 31 9 25 -15 -16 -68 -90 -68 -95 0 -3 -8 -17 -18 -32 -9 -16 -23 -39
-31 -52 -14 -23 -76 -42 -76 -24 0 5 14 36 31 69 17 34 28 64 25 67 -3 3 -6 0
-6 -6 0 -6 -6 -17 -12 -24 -7 -7 -23 -34 -36 -60 -13 -27 -27 -48 -32 -48 -10
0 -3 27 12 47 5 7 5 14 -2 18 -6 4 -10 3 -9 -2 5 -21 -22 -63 -41 -63 -24 0
-24 -2 -4 45 8 20 10 34 5 30 -6 -3 -11 -12 -11 -18 0 -7 -7 -20 -14 -30 -13
-16 -16 -16 -56 5 -146 78 -224 332 -157 513 43 119 160 195 253 165 69 -23
118 -97 130 -197 4 -26 14 -54 23 -62 15 -13 15 -13 -1 -8 -15 5 -18 0 -18
-32 l0 -38 69 -10 c82 -11 82 -12 76 103 -5 130 -55 234 -140 300 -131 100
-355 37 -470 -131 -57 -83 -79 -159 -79 -270 0 -155 59 -290 167 -386 39 -35
40 -37 28 -67 -7 -17 -13 -35 -13 -39 0 -4 -3 -12 -7 -18 -7 -8 -23 -62 -22
-72 0 -2 -4 -17 -9 -34 -22 -76 -32 -325 -16 -404 9 -48 14 -70 16 -72 4 -4 7
-22 9 -39 0 -8 5 -13 10 -10 5 4 3 30 -6 62 -8 31 -12 63 -9 70 3 8 2 14 -2
14 -11 0 -6 235 6 305 18 100 52 232 68 263 1 1 9 0 18 -4 20 -8 20 -28 2 -62
-21 -40 -47 -112 -40 -112 4 0 2 -6 -4 -12 -18 -23 -37 -137 -45 -267 -1 -13
3 -26 9 -28 6 -2 11 3 11 12 0 8 -4 15 -9 15 -5 0 -6 6 -1 13 4 6 9 28 10 47
8 107 53 275 93 350 13 24 45 28 36 4 -3 -9 -9 -28 -12 -42 -4 -15 -11 -33
-17 -39 -5 -7 -7 -13 -4 -13 3 0 -1 -16 -9 -35 -8 -19 -12 -35 -9 -35 3 0 1
-8 -4 -18 -20 -38 -38 -208 -35 -330 3 -133 12 -179 29 -153 3 6 2 11 -3 11
-11 0 -9 248 2 315 20 120 27 154 51 235 9 30 19 65 22 78 6 27 21 38 34 25 6
-6 5 -20 -2 -39 -12 -29 -13 -32 -23 -69 -52 -187 -63 -272 -58 -448 2 -34 6
-47 15 -44 6 2 10 11 8 18 -16 54 10 329 39 403 5 15 7 26 5 26 -3 0 1 16 9
35 9 20 15 36 14 38 -3 7 27 77 34 77 11 0 10 -8 -8 -65 -28 -91 -32 -109 -50
-260 -4 -35 -5 -183 -1 -207 8 -46 15 -21 15 54 0 46 3 103 6 128 15 131 13
125 42 245 22 91 30 105 59 105 31 0 31 -9 1 -68 -13 -26 -29 -65 -35 -87 -7
-22 -15 -47 -18 -55 -4 -8 -5 -21 -4 -27 1 -7 -3 -13 -8 -13 -7 0 -7 -9 -1
-26 7 -16 7 -23 0 -19 -6 3 -10 -1 -10 -10 0 -9 4 -14 9 -11 11 7 8 -21 -4
-31 -4 -4 -5 -2 0 6 5 9 4 12 -3 8 -11 -7 -11 -32 1 -43 3 -4 2 -14 -3 -24 -5
-10 -6 -20 -3 -24 4 -4 8 -42 8 -86 1 -80 14 -126 16 -54 1 68 7 169 9 169 1
0 3 14 4 30 1 17 6 53 11 80 5 28 9 53 9 57 1 3 4 10 9 14 4 4 7 15 7 24 0 8
13 56 29 105 22 69 34 91 51 97 13 5 25 7 27 5 2 -2 -15 -42 -36 -89 -34 -73
-61 -150 -60 -168 0 -3 -4 -18 -10 -33 -13 -32 -24 -123 -14 -114 3 4 7 17 8
29 1 13 8 43 15 68 8 25 14 48 16 53 1 4 2 8 3 10 2 1 4 11 7 22 11 56 99 235
115 235 6 0 9 -3 7 -7 -5 -12 -26 -59 -40 -90 -12 -30 -14 -37 -22 -71 -3 -12
-7 -26 -10 -30 -3 -5 -8 -22 -11 -38 -3 -16 -14 -63 -24 -104 -10 -41 -17 -94
-16 -117 1 -24 -1 -43 -5 -43 -3 0 -7 -11 -8 -25 -1 -14 3 -25 8 -25 9 0 14
14 11 33 0 4 4 7 10 7 7 0 9 -12 5 -34 -4 -19 -3 -37 1 -39 4 -3 9 14 11 36 4
66 38 199 76 296 40 103 88 204 99 209 4 2 7 10 7 17 0 7 3 15 8 17 4 2 20 22
35 46 15 23 59 78 97 122 66 74 89 108 55 80 -8 -7 1 21 20 62 33 69 44 99 49
138 1 9 5 20 8 25 6 11 16 64 23 130 l5 40 -21 -24 c-16 -20 -22 -22 -32 -11
-7 7 -7 10 -1 7 6 -4 17 5 24 18 7 13 18 22 23 18 6 -3 7 -1 3 6 -4 6 -4 17 1
24 11 14 11 177 0 194 -4 6 -5 31 -2 55 3 33 2 39 -6 25 -5 -9 -7 -22 -4 -27
3 -6 1 -10 -5 -10 -6 0 -9 -4 -6 -8 2 -4 -4 -8 -15 -8 -18 0 -18 2 -5 12 20
14 20 28 2 43 -11 9 -16 9 -22 -1z m21 -26 c-8 -8 -25 10 -19 20 4 6 9 5 15
-3 4 -7 6 -15 4 -17z m15 -52 c0 -5 -4 -10 -10 -10 -5 0 -10 5 -10 10 0 6 5
10 10 10 6 0 10 -4 10 -10z m20 -28 c0 -5 -7 -9 -15 -9 -8 0 -12 4 -9 9 3 4 9
8 15 8 5 0 9 -4 9 -8z m-3 -84 c-3 -8 -6 -5 -6 6 -1 11 2 17 5 13 3 -3 4 -12
1 -19z m3 -24 c0 -8 -19 -13 -24 -6 -3 5 1 9 9 9 8 0 15 -2 15 -3z m5 -44 c3
-5 -3 -14 -14 -20 -13 -7 -22 -7 -26 0 -4 6 -11 8 -16 5 -5 -4 -9 0 -9 8 0 16
56 22 65 7z m-247 -617 c-8 -10 -20 -27 -26 -38 -6 -11 -12 -15 -12 -9 0 12
38 64 47 64 3 0 -1 -8 -9 -17z m-75 -70 c-22 -32 -91 -185 -98 -218 -2 -5 -12
-43 -24 -83 -12 -41 -23 -83 -25 -95 -4 -38 -18 -77 -26 -77 -5 0 -4 15 0 33
5 17 13 55 19 82 6 28 13 58 16 68 3 9 7 25 9 35 4 19 45 140 74 217 11 31 27
54 42 62 33 16 36 10 13 -24z"/>
<path d="M3960 3765 c-5 -6 14 -10 53 -11 70 -1 214 -13 237 -19 22 -6 83 -17
98 -18 7 0 10 -7 7 -14 -3 -8 -5 -17 -5 -19 0 -3 -4 -2 -10 1 -5 3 -22 8 -37
10 -161 24 -186 26 -345 30 -110 2 -148 0 -148 -9 0 -8 21 -12 63 -12 63 0
211 -11 257 -18 14 -3 47 -7 73 -11 26 -3 71 -10 100 -16 29 -5 68 -12 87 -15
19 -3 38 -8 41 -10 4 -2 23 -6 44 -10 20 -3 54 -12 76 -19 21 -8 39 -12 39
-10 0 2 16 -3 35 -11 19 -8 35 -11 35 -8 0 4 6 2 13 -4 6 -5 26 -13 44 -17 22
-4 30 -11 26 -21 -4 -12 2 -16 23 -13 4 0 10 -3 13 -8 7 -9 69 -34 89 -36 6 0
12 -4 12 -9 0 -4 3 -7 8 -6 9 3 109 -31 144 -48 15 -8 35 -16 45 -17 10 -2 29
-9 43 -14 14 -6 49 -21 79 -33 30 -11 75 -30 100 -41 68 -30 365 -180 371
-188 3 -3 34 -21 70 -40 36 -19 68 -39 72 -45 5 -8 8 -7 8 1 0 7 7 10 16 6 12
-5 13 -7 2 -14 -9 -6 -6 -8 9 -6 21 1 21 2 6 19 -9 10 -21 17 -27 15 -6 -2
-20 5 -31 16 -11 10 -49 35 -85 54 -36 20 -77 45 -92 55 -16 11 -28 16 -28 13
0 -3 -13 3 -29 14 -16 12 -34 21 -40 21 -6 0 -11 4 -11 9 0 5 -11 12 -25 15
-14 4 -25 11 -25 16 0 6 -7 10 -15 10 -8 0 -15 4 -15 10 0 9 78 -26 195 -88
170 -91 206 -114 276 -183 21 -21 39 -36 39 -33 0 3 21 -16 46 -43 32 -33 40
-38 25 -16 -12 17 -34 42 -49 55 -31 26 -59 64 -30 40 13 -10 17 -10 21 0 4 8
6 7 6 -4 1 -10 10 -22 20 -28 28 -14 34 -13 27 8 -4 9 32 -22 79 -70 47 -48
85 -82 85 -75 0 7 5 5 10 -4 15 -26 70 -82 70 -72 0 5 -9 19 -20 31 -12 12
-18 22 -15 22 4 0 -1 7 -9 16 -9 8 -16 22 -16 29 0 8 -5 17 -12 21 -8 5 -9 1
-4 -12 4 -12 -9 -4 -35 21 -24 22 -50 46 -58 54 -14 13 -14 14 4 8 19 -7 19
-7 1 8 -10 8 -23 12 -29 8 -6 -3 -7 -1 -3 5 3 6 -10 23 -30 39 -20 15 -53 44
-73 63 -20 19 -59 53 -86 75 -27 22 -57 48 -67 57 -9 10 -34 28 -55 41 -44 28
-77 62 -50 51 8 -3 18 -12 21 -20 3 -8 12 -14 20 -14 7 0 28 -13 46 -30 63
-59 113 -91 123 -77 5 7 6 4 2 -10 -5 -18 -3 -21 15 -18 11 2 18 0 16 -4 -3
-4 20 -30 51 -57 57 -49 80 -72 149 -149 22 -25 33 -32 29 -20 -6 19 96 -81
203 -198 28 -32 52 -55 52 -52 0 4 -32 48 -72 98 -70 89 -175 198 -346 360
-45 43 -80 82 -77 88 3 5 -1 6 -9 3 -9 -4 -18 1 -22 10 -3 9 -10 16 -15 16 -8
0 -37 23 -83 65 -29 27 -146 105 -146 98 0 -4 -5 0 -11 10 -5 9 -15 17 -20 17
-12 0 12 -26 25 -27 5 -1 12 -5 15 -10 3 -4 29 -26 56 -48 28 -22 66 -55 85
-74 19 -19 24 -26 10 -14 -43 34 -211 143 -222 143 -5 0 -7 -7 -4 -16 3 -9 2
-12 -5 -9 -5 4 -7 15 -4 24 4 12 -3 21 -22 30 -16 7 -30 12 -32 11 -2 -1 -7 3
-10 8 -5 8 -179 106 -191 107 -5 1 -94 42 -122 57 -12 5 -18 5 -18 -2 0 -5 6
-10 14 -10 7 0 19 -7 26 -15 7 -9 19 -14 27 -11 7 3 13 1 13 -4 0 -6 6 -10 14
-10 7 0 19 -7 26 -15 7 -8 16 -12 21 -9 5 3 9 2 9 -3 0 -4 15 -14 33 -22 17
-8 52 -28 77 -45 25 -17 48 -30 52 -28 4 1 5 -5 2 -13 -4 -9 5 -21 25 -32 17
-10 31 -21 31 -25 0 -5 5 -8 11 -8 6 0 16 -6 23 -12 8 -7 39 -31 69 -53 31
-22 55 -41 53 -42 -4 -5 -110 61 -241 148 -61 41 -133 85 -160 99 -28 14 -52
27 -55 30 -10 10 -138 70 -149 70 -6 0 -11 5 -11 12 0 6 -3 9 -6 5 -3 -3 -26
3 -50 13 -24 11 -48 20 -52 21 -13 3 -53 19 -73 29 -10 6 -19 7 -19 2 0 -5 28
-21 63 -36 34 -15 80 -36 102 -46 22 -10 61 -28 88 -40 26 -12 47 -27 47 -33
0 -7 -5 -5 -10 3 -7 10 -10 11 -10 2 0 -15 47 -35 62 -26 7 5 8 2 3 -6 -6 -10
-4 -12 9 -7 9 4 15 3 12 -2 -3 -4 17 -18 44 -31 28 -13 50 -27 50 -32 0 -4 7
-8 15 -8 8 0 15 -4 15 -10 0 -10 -3 -9 -182 78 -70 34 -130 62 -134 62 -14 0
-239 114 -246 124 -4 6 -8 8 -8 3 0 -4 -14 0 -32 9 -34 18 -127 50 -170 58
-16 3 -40 8 -55 12 -15 3 -30 7 -35 10 -4 3 -8 0 -8 -6 0 -6 -5 -8 -12 -3 -19
11 -54 15 -43 4 6 -5 46 -17 90 -27 95 -21 94 -21 100 -24 3 -1 8 -3 13 -4 66
-16 172 -67 172 -84 0 -11 -3 -12 -13 -3 -8 6 -17 8 -20 4 -4 -3 -7 -2 -7 4 0
6 -12 13 -27 16 -24 4 -48 10 -88 21 -5 1 -30 9 -55 16 -25 7 -49 14 -55 16
-5 1 -28 7 -50 13 -22 5 -55 11 -72 13 -18 1 -33 6 -33 10 0 3 -8 6 -17 6 -17
-1 -80 7 -173 21 -25 4 -80 7 -122 6 -43 0 -78 2 -78 5 0 9 -52 5 -60 -5z
m468 -77 c7 -7 12 -9 12 -6 0 3 31 -2 69 -12 39 -10 72 -15 75 -12 4 3 6 1 6
-5 0 -6 20 -16 44 -22 59 -14 61 -14 45 7 -12 15 -12 16 2 5 8 -7 24 -14 35
-16 10 -2 31 -9 45 -15 15 -6 35 -12 45 -14 11 -2 25 -8 32 -15 7 -7 19 -10
27 -7 8 4 15 1 15 -5 0 -6 5 -11 12 -11 14 0 101 -50 96 -56 -3 -2 -23 5 -47
16 -23 12 -46 18 -51 15 -6 -3 -10 -2 -10 4 0 6 -12 14 -27 17 -16 4 -42 15
-60 25 -17 10 -34 15 -37 12 -3 -4 -6 -1 -6 6 0 7 -4 10 -9 6 -5 -3 -12 -1
-16 5 -3 5 -14 10 -23 10 -13 0 -12 -5 8 -20 14 -11 30 -20 36 -20 5 0 29 -9
52 -20 22 -11 47 -20 55 -20 7 0 17 -3 21 -7 4 -5 11 -8 14 -9 10 -1 34 -11
171 -71 68 -29 129 -55 135 -56 6 -1 13 -4 16 -7 3 -3 40 -22 83 -43 90 -44
103 -58 20 -21 -32 14 -94 40 -138 58 -113 46 -119 49 -130 52 -64 17 -217 80
-282 116 -45 25 -84 43 -87 40 -3 -3 -6 0 -6 7 0 7 -4 10 -8 7 -4 -3 -46 8
-93 23 -46 16 -112 34 -146 42 -35 7 -63 17 -63 21 0 13 55 9 68 -4z m435 -84
c-7 -19 -10 -18 -16 5 -3 13 -1 18 9 14 7 -2 10 -11 7 -19z m37 2 c0 -2 -7 -7
-16 -10 -8 -3 -12 -2 -9 4 6 10 25 14 25 6z m37 -29 c7 0 10 -4 7 -9 -3 -4 4
-8 15 -8 12 0 21 -4 21 -10 0 -5 9 -10 20 -10 11 0 20 -5 20 -11 0 -5 3 -8 8
-6 4 3 70 -27 147 -65 77 -38 131 -66 120 -62 -11 3 -26 7 -32 7 -7 0 -13 5
-13 10 0 6 -3 8 -6 4 -3 -3 -26 3 -50 13 -24 11 -44 17 -44 13 0 -3 -6 0 -14
6 -8 7 -23 13 -34 16 -27 5 -109 43 -114 52 -1 5 -25 23 -53 42 -27 18 -41 30
-30 26 11 -4 25 -8 32 -8z m-167 -47 c0 -5 -2 -10 -4 -10 -3 0 -8 5 -11 10 -3
6 -1 10 4 10 6 0 11 -4 11 -10z m757 -126 c-9 -9 -28 6 -21 18 4 6 10 6 17 -1
6 -6 8 -13 4 -17z m-67 -28 c0 -2 -9 -2 -20 1 -11 3 -20 9 -20 15 0 5 9 4 20
-2 11 -6 20 -12 20 -14z m31 -23 c13 -16 12 -17 -3 -4 -10 7 -18 15 -18 17 0
8 8 3 21 -13z m-51 -13 c14 -11 19 -20 13 -20 -7 0 -22 9 -33 20 -26 26 -13
26 20 0z m230 -16 c0 -2 -9 0 -20 6 -11 6 -20 13 -20 16 0 2 9 0 20 -6 11 -6
20 -13 20 -16z m-272 -29 c-3 -3 -9 2 -12 12 -6 14 -5 15 5 6 7 -7 10 -15 7
-18z m92 15 c0 -5 -2 -10 -4 -10 -3 0 -8 5 -11 10 -3 6 -1 10 4 10 6 0 11 -4
11 -10z m268 -127 c6 -6 33 -22 58 -35 42 -21 147 -108 131 -108 -14 0 -264
173 -287 198 -9 10 85 -43 98 -55z"/>
<path d="M4417 3769 c7 -7 15 -10 18 -7 3 3 -2 9 -12 12 -14 6 -15 5 -6 -5z"/>
<path d="M3920 3760 c-9 -6 -10 -10 -3 -10 6 0 15 5 18 10 8 12 4 12 -15 0z"/>
<path d="M3606 3723 c-6 -14 -5 -15 5 -6 7 7 10 15 7 18 -3 3 -9 -2 -12 -12z"/>
<path d="M3668 3733 c7 -3 16 -2 19 1 4 3 -2 6 -13 5 -11 0 -14 -3 -6 -6z"/>
<path d="M3517 3718 c-22 -14 -2 -15 38 -3 40 13 40 13 7 12 -18 -1 -38 -5
-45 -9z"/>
<path d="M3780 3721 c0 -5 -10 -7 -22 -5 -21 4 -22 4 -3 -5 28 -13 32 -13 39
4 3 8 1 15 -4 15 -6 0 -10 -4 -10 -9z"/>
<path d="M3289 3703 c-13 -16 -12 -17 4 -4 9 7 17 15 17 17 0 8 -8 3 -21 -13z"/>
<path d="M3715 3710 c3 -5 8 -10 11 -10 2 0 4 5 4 10 0 6 -5 10 -11 10 -5 0
-7 -4 -4 -10z"/>
<path d="M3255 3700 c3 -5 8 -10 11 -10 2 0 4 5 4 10 0 6 -5 10 -11 10 -5 0
-7 -4 -4 -10z"/>
<path d="M3214 3689 c-3 -6 -12 -8 -20 -5 -8 3 -14 1 -14 -4 0 -11 13 -11 50
-1 21 6 22 8 8 14 -10 3 -20 2 -24 -4z"/>
<path d="M4850 3690 c0 -5 5 -10 11 -10 5 0 7 5 4 10 -3 6 -8 10 -11 10 -2 0
-4 -4 -4 -10z"/>
<path d="M3457 3654 c-4 -4 -17 -8 -29 -9 -37 -4 -38 -4 -38 -16 0 -8 4 -8 15
1 8 6 18 9 23 6 5 -3 18 1 28 9 10 8 16 15 13 15 -3 0 -9 -3 -12 -6z"/>
<path d="M3480 3649 c0 -5 5 -7 10 -4 6 3 10 8 10 11 0 2 -4 4 -10 4 -5 0 -10
-5 -10 -11z"/>
<path d="M3335 3614 c-10 -8 -22 -11 -26 -8 -5 3 -9 -1 -9 -9 0 -13 4 -13 25
-4 14 7 25 16 25 20 0 5 4 6 9 2 5 -3 12 -2 15 3 8 13 -19 10 -39 -4z"/>
<path d="M5100 3553 c8 -3 19 -11 23 -17 6 -7 7 -6 4 4 -2 8 -12 16 -23 17
-13 2 -15 1 -4 -4z"/>
<path d="M4504 3532 c3 -5 -6 -14 -19 -20 -14 -7 -24 -17 -23 -24 2 -8 -6 -12
-22 -11 -14 1 -54 2 -90 4 -36 1 -77 6 -93 10 -16 5 -25 4 -22 -2 4 -5 2 -9
-4 -9 -5 0 -12 6 -14 13 -4 8 -6 7 -6 -3 -1 -9 -12 -15 -28 -16 -37 -2 -120
-12 -158 -21 -16 -3 -39 -7 -50 -9 -11 -1 -20 -3 -20 -4 0 -2 -31 -9 -60 -14
-60 -10 -180 -38 -189 -44 -6 -3 -17 -7 -24 -8 -19 -3 -116 -38 -122 -44 -3
-3 -12 -6 -20 -8 -8 -2 -40 -15 -70 -29 -30 -15 -57 -27 -60 -28 -15 -3 -51
-27 -47 -32 4 -4 111 42 151 65 5 3 6 1 3 -5 -3 -5 -39 -26 -79 -47 -88 -45
-157 -87 -229 -142 -55 -42 -190 -164 -218 -198 -9 -10 -32 -35 -51 -55 -106
-111 -62 -78 78 57 79 77 160 147 254 216 34 25 37 26 35 7 0 -11 -5 -17 -9
-15 -9 6 -141 -100 -175 -140 -13 -14 -27 -26 -31 -26 -5 0 -15 -11 -22 -25
-7 -13 -18 -22 -23 -18 -6 3 -7 1 -3 -5 4 -7 25 7 56 38 28 28 50 47 50 43 0
-5 4 -3 8 2 13 19 152 115 152 106 0 -5 -4 -11 -9 -13 -11 -4 -95 -74 -145
-122 -28 -26 -33 -34 -16 -26 13 7 30 18 36 24 32 31 83 75 119 101 22 17 44
34 50 38 85 69 395 216 395 188 0 -5 -12 -12 -27 -15 -34 -9 -157 -68 -161
-78 -2 -5 -8 -8 -13 -8 -16 0 -218 -138 -275 -187 -29 -26 -51 -50 -48 -54 2
-4 -4 -12 -13 -18 -10 -5 -15 -12 -11 -16 3 -4 24 11 45 32 21 21 54 49 73 63
19 13 46 35 60 47 14 13 30 23 37 23 6 0 13 3 15 8 6 15 96 71 184 115 99 50
254 111 254 99 0 -4 -28 -20 -63 -36 -77 -35 -249 -139 -307 -186 -14 -11 -29
-20 -33 -20 -4 0 -23 -15 -42 -34 -18 -19 -35 -33 -37 -32 -2 0 -20 -16 -41
-36 -41 -42 -37 -53 5 -13 15 14 31 25 35 25 5 0 16 8 24 18 9 9 26 24 39 32
12 8 28 20 34 25 6 6 45 32 86 58 41 25 80 51 87 57 7 5 16 10 21 10 5 0 34
11 63 24 48 21 83 35 99 41 3 1 12 5 20 8 15 6 128 36 164 43 10 2 16 0 12 -3
-4 -4 -13 -8 -22 -9 -26 -4 -114 -38 -114 -44 0 -3 -8 -6 -18 -7 -21 -2 -235
-122 -240 -135 -2 -4 -12 -8 -23 -8 -10 0 -19 -4 -19 -9 0 -5 -8 -12 -18 -15
-10 -3 -35 -27 -56 -52 -24 -28 -30 -41 -17 -32 11 7 21 16 21 20 0 5 7 8 16
8 10 0 14 6 11 15 -4 8 -1 17 5 21 7 4 8 3 4 -4 -4 -7 -2 -12 3 -12 6 0 11 5
11 11 0 5 4 8 9 5 5 -4 11 -3 13 1 6 14 82 61 143 88 33 15 76 35 95 43 19 9
38 16 42 17 3 0 10 3 14 8 4 4 16 7 26 7 10 0 18 4 18 10 0 5 8 6 17 3 13 -5
15 -2 10 11 -4 10 -3 15 3 11 19 -11 10 -33 -15 -39 -33 -8 -277 -155 -288
-173 -4 -7 -15 -13 -22 -13 -8 0 -15 -5 -15 -11 0 -11 15 -4 43 19 9 8 17 11
17 6 0 -5 4 -4 8 2 8 13 212 114 230 114 7 0 12 4 12 9 0 5 13 8 30 7 24 -2
27 1 18 12 -6 7 -7 12 -2 11 5 -1 16 0 24 4 40 15 133 45 148 48 4 0 14 5 22
9 8 4 33 11 54 14 21 4 48 8 60 11 84 19 187 28 333 29 63 0 107 4 100 8 -14
10 -357 7 -405 -3 -17 -4 -34 -4 -37 0 -15 26 398 46 442 23 12 -7 33 -13 47
-14 15 -1 26 -6 26 -11 0 -4 8 -7 18 -6 9 1 24 0 32 -4 59 -22 139 -44 144
-39 3 3 6 0 6 -7 0 -7 6 -11 14 -8 7 3 17 2 22 -2 17 -15 104 -43 117 -38 6 3
2 6 -10 6 -13 1 -23 6 -23 13 0 6 -3 9 -6 6 -3 -4 -37 7 -75 22 -38 16 -69 27
-69 24 0 -3 -10 1 -22 8 -13 7 -29 11 -35 10 -7 -2 -13 1 -13 6 0 6 -6 9 -12
9 -23 -2 -98 24 -98 33 0 5 6 8 13 5 6 -2 46 -13 87 -25 73 -21 225 -73 265
-90 67 -30 94 -38 89 -27 -3 9 -170 89 -194 93 -3 0 -18 6 -35 13 -63 27 -245
90 -245 85 0 -2 -9 0 -21 6 -11 6 -28 13 -37 16 -51 12 -108 29 -112 34 -3 3
-21 6 -40 8 -19 1 -42 5 -50 9 -8 3 -18 7 -22 7 -19 2 -11 20 9 21 12 1 19 -3
16 -8 -3 -5 4 -4 16 2 14 8 21 8 21 1 0 -5 9 -10 21 -10 26 0 163 -37 206 -56
17 -8 37 -14 44 -14 19 0 232 -87 349 -142 146 -70 342 -168 360 -182 13 -9
13 -9 2 5 -32 41 -312 190 -507 269 -55 23 -107 43 -115 45 -8 2 -26 8 -40 13
-14 5 -27 10 -30 10 -3 0 -18 6 -35 12 -16 7 -65 23 -107 37 -43 13 -80 28
-83 33 -3 5 -12 7 -20 3 -8 -3 -15 0 -15 7 0 7 -7 10 -15 6 -8 -3 -15 -2 -15
2 0 4 -9 13 -21 20 -12 8 -19 9 -15 4z m25 -26 c-2 -2 -15 -9 -29 -15 -24 -11
-24 -11 -6 3 16 13 49 24 35 12z m-231 -49 c7 -5 12 -3 12 3 0 6 12 8 33 4 17
-3 43 -7 57 -8 14 0 27 -4 30 -8 5 -6 34 -12 113 -25 20 -3 37 -10 37 -15 0
-4 -12 -6 -27 -3 -16 3 -55 10 -88 16 -33 5 -67 12 -75 16 -8 3 -22 7 -30 7
-8 1 -21 5 -29 10 -9 6 -12 5 -7 -2 6 -11 -37 -7 -56 4 -4 3 -8 0 -8 -5 0 -11
5 -12 65 -16 17 -1 41 -7 55 -12 14 -6 31 -8 38 -6 6 3 12 1 12 -5 0 -5 15
-10 33 -10 17 0 35 -1 40 -2 9 -3 2 -1 122 -30 55 -13 91 -26 81 -28 -18 -4
-123 13 -156 25 -17 6 -29 9 -79 17 -24 4 -31 2 -24 -5 6 -6 26 -13 44 -16 77
-12 55 -21 -49 -19 -62 1 -112 -1 -112 -4 0 -3 -21 -5 -47 -5 -27 1 -54 -3
-60 -8 -9 -7 -13 -4 -13 7 0 10 5 14 10 11 6 -3 10 -1 10 6 0 7 -13 10 -35 7
-19 -2 -31 0 -26 5 16 16 202 29 239 16 16 -6 22 -5 22 6 0 8 -8 16 -17 16
-98 6 -148 13 -148 19 0 1 -10 3 -22 6 -13 2 -23 0 -23 -5 0 -5 10 -8 22 -7
11 0 23 -4 25 -10 2 -6 -7 -10 -19 -9 -13 1 -39 -2 -58 -6 -19 -4 -53 -10 -75
-12 -22 -3 -85 -15 -139 -26 -111 -23 -118 -24 -96 -11 15 8 114 33 178 45 15
2 41 9 59 14 17 5 34 7 36 4 3 -3 14 0 24 6 19 12 -13 10 -101 -4 -21 -4 -48
-8 -60 -9 -11 -2 -28 -6 -36 -9 -14 -4 -155 -41 -190 -49 -8 -1 -18 -7 -22
-13 -4 -5 -10 -6 -14 -2 -9 9 -2 17 22 22 11 2 36 11 57 19 20 9 37 13 37 10
0 -4 6 -2 13 4 19 16 218 63 270 64 28 0 47 5 47 12 0 7 3 7 8 1 10 -13 42
-18 42 -6 0 5 -6 11 -12 14 -7 3 1 4 17 3 17 -1 36 -5 43 -9z m354 -65 c4 -4
-1 -8 -12 -8 -11 0 -20 4 -20 8 0 4 -7 5 -15 2 -8 -4 -15 -1 -15 4 0 11 50 6
62 -6z m-968 -44 c-3 -5 -9 -6 -14 -3 -5 3 -11 1 -15 -5 -3 -5 -14 -10 -23
-10 -12 0 -9 4 8 13 29 15 52 18 44 5z m516 -18 c0 -4 -30 -11 -67 -15 -37 -4
-105 -17 -152 -30 -47 -13 -97 -26 -111 -30 l-25 -6 25 15 c14 8 48 23 75 32
28 9 55 20 60 24 19 15 195 24 195 10z m560 0 c8 -5 12 -11 10 -14 -3 -2 -14
2 -24 10 -22 15 -10 19 14 4z m-1151 -5 c-12 -11 -79 -34 -79 -27 0 4 15 13
33 19 38 12 52 15 46 8z m127 -7 c4 -7 4 -10 -1 -6 -4 4 -17 3 -29 -3 -20 -10
-20 -10 -2 5 24 19 23 19 32 4z m-96 -17 c-19 -9 -71 -38 -115 -63 -135 -76
-162 -89 -162 -73 0 8 4 12 8 9 5 -3 43 15 86 39 110 63 196 107 208 107 6 -1
-6 -9 -25 -19z m468 -36 c-12 -12 -60 -16 -53 -5 4 6 13 9 21 6 7 -3 16 -1 20
5 3 6 9 8 12 5 3 -3 3 -8 0 -11z m-73 -15 c-3 -5 -12 -10 -18 -10 -7 0 -6 4 3
10 19 12 23 12 15 0z m75 -16 c-39 -17 -40 -17 -40 -4 0 6 9 10 19 10 11 0 23
5 26 10 4 6 11 7 17 4 6 -4 -4 -13 -22 -20z m-75 -24 c-3 -5 -12 -10 -18 -10
-7 0 -6 4 3 10 19 12 23 12 15 0z m-702 -55 c-3 -9 -8 -14 -10 -11 -3 3 -2 9
2 15 9 16 15 13 8 -4z m-83 -189 c0 -2 -8 -10 -17 -17 -16 -13 -17 -12 -4 4
13 16 21 21 21 13z"/>
<path d="M4246 3349 c4 -7 44 0 44 7 0 2 -11 3 -24 2 -14 -1 -23 -5 -20 -9z"/>
<path d="M3828 3433 c7 -3 16 -2 19 1 4 3 -2 6 -13 5 -11 0 -14 -3 -6 -6z"/>
<path d="M3788 3423 c7 -3 16 -2 19 1 4 3 -2 6 -13 5 -11 0 -14 -3 -6 -6z"/>
<path d="M2674 3396 c-10 -8 -17 -17 -14 -19 3 -3 14 1 24 9 11 7 17 16 15 19
-3 3 -14 -2 -25 -9z"/>
<path d="M2020 3330 c0 -5 5 -10 11 -10 5 0 7 5 4 10 -3 6 -8 10 -11 10 -2 0
-4 -4 -4 -10z"/>
<path d="M4378 3255 c-3 -3 -46 -11 -120 -21 -27 -4 -48 -9 -48 -13 0 -3 -10
-7 -23 -8 -36 -4 -56 -9 -63 -16 -4 -4 -13 -7 -20 -7 -7 0 -25 -5 -41 -12 -15
-6 -34 -12 -41 -14 -8 -1 -17 -5 -20 -8 -8 -9 30 -2 46 7 6 5 17 5 22 2 6 -3
10 -2 10 3 0 5 6 9 13 10 6 0 41 8 77 17 36 9 74 18 85 21 11 2 32 6 47 9 15
4 29 1 34 -6 4 -8 3 -9 -5 -5 -6 4 -63 -10 -126 -31 -107 -35 -137 -50 -100
-50 8 0 15 3 15 7 0 4 6 7 13 7 6 0 44 9 82 21 105 32 158 45 180 46 11 1 25
4 30 7 25 14 220 17 305 5 85 -12 93 -14 125 -21 17 -4 46 -6 65 -6 26 1 31
-1 20 -9 -9 -6 -10 -10 -3 -10 6 0 14 4 17 9 6 9 90 -9 118 -24 9 -6 10 -5 3
3 -13 15 -106 43 -117 36 -4 -3 -8 -1 -8 3 0 14 -79 32 -86 21 -4 -6 -9 -7
-13 -1 -14 21 -98 30 -279 31 -105 0 -192 -2 -194 -3z"/>
<path d="M5966 3185 c4 -8 10 -15 15 -15 25 0 427 -402 469 -469 8 -15 71 -91
103 -125 49 -53 -70 117 -145 208 -78 95 -349 356 -369 356 -4 0 -9 3 -11 8
-1 4 -18 17 -35 30 -23 15 -31 18 -27 7z"/>
<path d="M5250 3170 c0 -5 9 -10 20 -10 11 0 20 -5 20 -11 0 -5 5 -7 11 -3 8
4 3 12 -12 20 -29 16 -39 17 -39 4z"/>
<path d="M2353 3112 c-66 -73 -126 -152 -116 -152 4 0 3 -4 -3 -8 -18 -13
-128 -215 -122 -225 1 -1 -5 -13 -12 -27 -8 -14 -15 -27 -15 -30 0 -3 -9 -20
-19 -39 -13 -24 -14 -32 -4 -28 7 2 12 9 11 15 -1 5 4 16 12 22 8 7 15 18 15
24 0 14 107 224 125 246 6 8 14 22 17 30 5 14 55 78 156 202 42 51 8 29 -45
-30z"/>
<path d="M5310 3136 c0 -2 9 -6 20 -9 11 -3 18 -1 14 4 -5 9 -34 13 -34 5z"/>
<path d="M4043 3120 c-34 -14 -28 -21 7 -9 17 6 30 13 30 15 0 6 -12 4 -37 -6z"/>
<path d="M3075 3094 c-60 -51 -121 -110 -130 -124 -4 -8 5 -4 20 10 33 29 75
65 125 109 19 17 31 30 25 30 -5 0 -23 -11 -40 -25z"/>
<path d="M5610 3108 c0 -6 3 -8 7 -5 3 4 17 -3 30 -15 13 -12 23 -19 23 -15 0
9 -42 47 -52 47 -4 0 -8 -5 -8 -12z"/>
<path d="M2541 3019 c-24 -27 -41 -53 -37 -56 3 -3 18 10 33 28 15 18 36 41
46 51 18 19 21 28 10 28 -5 0 -28 -23 -52 -51z"/>
<path d="M5620 3051 c0 -9 30 -24 36 -18 2 1 -6 8 -16 15 -11 7 -20 8 -20 3z"/>
<path d="M1395 3039 c-4 -6 -5 -12 -2 -15 2 -3 7 2 10 11 7 17 1 20 -8 4z"/>
<path d="M1370 2985 c0 -8 0 -18 1 -21 0 -4 -5 -11 -13 -16 -11 -8 -11 -9 0
-6 8 2 12 6 11 8 -1 3 3 15 10 28 7 14 8 22 1 22 -5 0 -10 -7 -10 -15z"/>
<path d="M1299 2988 c-5 -13 -20 -276 -21 -373 0 -57 10 -190 17 -220 2 -11 9
-40 15 -65 6 -25 13 -52 17 -60 3 -8 5 -19 4 -23 -1 -5 3 -6 9 -2 7 4 8 11 2
18 -6 7 -12 31 -15 54 -4 22 -8 52 -11 65 -14 59 -15 138 -2 138 9 0 12 19 11
73 -1 51 -5 71 -14 69 -7 -1 -10 2 -6 8 3 6 10 8 14 6 4 -3 8 1 8 9 0 8 -5 15
-11 15 -7 0 -7 3 1 8 7 4 13 33 15 65 2 31 6 57 10 57 3 0 5 8 3 18 -1 9 0 22
3 27 9 14 10 55 2 50 -4 -2 -13 -36 -20 -75 -7 -38 -16 -70 -19 -70 -3 0 -6
47 -6 105 1 90 -1 115 -6 103z m15 -233 c-4 -8 -8 -15 -10 -15 -2 0 -4 7 -4
15 0 8 4 15 10 15 5 0 7 -7 4 -15z m-1 -200 c4 -8 3 -16 -1 -19 -4 -3 -9 4 -9
15 -2 23 3 25 10 4z"/>
<path d="M2755 2967 c-5 -7 -27 -35 -49 -62 -35 -46 -36 -47 -5 -15 63 67 83
90 73 90 -5 -1 -13 -6 -19 -13z"/>
<path d="M6010 2971 c0 -5 3 -11 8 -13 4 -1 17 -16 30 -32 28 -36 28 -28 1 18
-20 34 -39 47 -39 27z"/>
<path d="M2500 2920 c-18 -23 -30 -43 -28 -45 3 -3 19 15 37 40 40 56 34 59
-9 5z"/>
<path d="M3095 2910 c-3 -5 -1 -10 4 -10 6 0 11 5 11 10 0 6 -2 10 -4 10 -3 0
-8 -4 -11 -10z"/>
<path d="M3159 2883 c-13 -16 -12 -17 4 -4 16 13 21 21 13 21 -2 0 -10 -8 -17
-17z"/>
<path d="M1237 2873 c-7 -12 0 -343 8 -383 4 -19 7 -50 8 -67 1 -18 5 -33 9
-33 5 0 8 -15 8 -34 0 -19 5 -38 11 -41 10 -7 8 25 -6 89 -15 69 -27 228 -29
368 0 60 -2 108 -3 108 -1 0 -4 -3 -6 -7z"/>
<path d="M1156 2857 c3 -10 9 -15 12 -12 3 3 0 11 -7 18 -10 9 -11 8 -5 -6z"/>
<path d="M2445 2850 c-3 -5 -2 -10 4 -10 5 0 13 5 16 10 3 6 2 10 -4 10 -5 0
-13 -4 -16 -10z"/>
<path d="M2253 2788 c-59 -118 -81 -168 -73 -168 4 0 14 15 21 33 7 17 30 62
50 99 20 37 34 69 31 72 -3 3 0 6 6 6 7 0 12 5 12 10 0 25 -19 5 -47 -52z"/>
<path d="M1160 2823 c7 -3 7 -11 0 -24 -7 -13 -7 -19 0 -19 5 0 10 7 10 15 0
8 0 18 1 22 0 4 -4 8 -10 10 -7 1 -7 -1 -1 -4z"/>
<path d="M2425 2819 c-4 -6 -5 -12 -2 -15 2 -3 7 2 10 11 7 17 1 20 -8 4z"/>
<path d="M2856 2812 c-3 -5 1 -9 9 -9 8 0 12 4 9 9 -3 4 -7 8 -9 8 -2 0 -6 -4
-9 -8z"/>
<path d="M1093 2710 c3 -41 8 -82 11 -90 3 -8 7 -30 10 -48 5 -38 33 -136 49
-172 6 -14 11 -27 12 -30 0 -3 11 -27 23 -54 12 -27 22 -52 22 -56 0 -4 8 -14
18 -21 14 -11 15 -11 5 1 -7 8 -13 24 -13 37 0 13 -5 23 -10 23 -6 0 -9 3 -8
8 2 4 -7 32 -19 62 -28 74 -62 188 -67 225 -2 17 -7 38 -11 47 -4 9 -4 21 -1
27 4 5 2 12 -2 15 -5 3 -9 24 -10 47 -1 23 -5 45 -8 48 -4 3 -4 -28 -1 -69z"/>
<path d="M1163 2758 c-6 -7 -9 -22 -7 -32 1 -11 4 -38 5 -60 1 -23 7 -47 12
-53 6 -9 6 -13 -2 -13 -7 0 -8 -8 -1 -24 5 -13 6 -27 3 -30 -4 -3 -2 -6 3 -6
5 0 10 -10 10 -22 1 -13 4 -30 7 -38 2 -8 8 -30 12 -48 4 -18 12 -35 16 -38 5
-3 9 -16 9 -30 0 -13 5 -24 10 -24 13 0 13 -3 -7 61 -9 30 -17 56 -18 59 0 3
-6 34 -14 70 -26 131 -29 153 -27 196 0 24 0 44 0 44 -1 0 -6 -6 -11 -12z"/>
<path d="M2685 2690 c-3 -6 1 -7 9 -4 18 7 21 14 7 14 -6 0 -13 -4 -16 -10z"/>
<path d="M2565 2679 c-4 -6 -5 -12 -2 -15 2 -3 7 2 10 11 7 17 1 20 -8 4z"/>
<path d="M1049 2673 c-1 -5 -1 -11 0 -15 0 -4 3 -22 5 -40 14 -97 18 -117 34
-173 6 -22 12 -44 13 -50 1 -5 10 -27 20 -47 11 -21 17 -38 14 -38 -4 0 3 -13
14 -29 11 -15 18 -31 14 -35 -3 -3 -1 -6 6 -6 7 0 10 -4 7 -9 -3 -5 2 -15 12
-22 15 -13 16 -12 3 4 -7 9 -11 17 -7 17 4 0 -1 14 -10 32 -13 25 -74 194 -74
205 -1 2 -2 8 -4 15 -7 24 -38 173 -39 186 0 13 -6 17 -8 5z"/>
<path d="M2424 2638 l-19 -23 23 19 c21 18 27 26 19 26 -2 0 -12 -10 -23 -22z"/>
<path d="M1886 2578 c-22 -60 -28 -83 -18 -73 4 4 7 10 8 13 0 4 6 20 12 35 7
16 12 33 12 38 0 5 4 9 8 9 5 0 9 7 9 15 0 29 -13 14 -31 -37z"/>
<path d="M2357 2624 c-4 -4 -7 -11 -7 -15 0 -9 27 -5 37 6 4 4 3 5 -4 2 -6 -4
-13 -2 -15 4 -2 5 -7 7 -11 3z"/>
<path d="M2162 2605 c4 -4 3 -14 -3 -21 -7 -9 -6 -14 3 -20 7 -4 10 -4 6 1 -4
4 -3 14 3 21 7 9 6 14 -3 20 -7 4 -10 4 -6 -1z"/>
<path d="M2093 2575 c-6 -15 -7 -27 -2 -31 5 -3 8 -2 7 3 -1 4 3 18 10 31 7
12 9 22 5 22 -4 0 -13 -11 -20 -25z"/>
<path d="M1669 2588 c-4 -10 -5 -87 -1 -83 6 5 11 85 5 85 -2 0 -3 -1 -4 -2z"/>
<path d="M2044 2581 c4 -5 0 -12 -6 -14 -8 -3 -6 -6 5 -6 9 -1 17 6 17 14 0 8
-5 15 -11 15 -5 0 -8 -4 -5 -9z"/>
<path d="M2336 2579 c2 -4 -2 -10 -8 -12 -8 -4 -9 -6 -2 -6 6 -1 17 5 23 12 8
10 7 14 -4 14 -8 0 -12 -4 -9 -8z"/>
<path d="M2246 2533 c-6 -14 -5 -15 5 -6 7 7 10 15 7 18 -3 3 -9 -2 -12 -12z"/>
<path d="M1404 2503 c3 -21 5 -39 6 -40 0 -2 5 -3 11 -3 8 0 8 4 2 13 -6 6
-10 24 -9 40 1 15 -2 27 -7 27 -5 0 -6 -17 -3 -37z"/>
<path d="M2020 2529 c0 -5 5 -7 10 -4 6 3 10 8 10 11 0 2 -4 4 -10 4 -5 0 -10
-5 -10 -11z"/>
<path d="M1315 2493 c2 -10 10 -52 19 -93 9 -41 16 -76 16 -77 0 -2 4 -3 8 -3
5 0 9 7 9 15 0 8 -3 15 -7 15 -4 0 -10 24 -14 53 -4 28 -9 61 -11 72 -2 11 -4
23 -4 28 -1 4 -5 7 -10 7 -6 0 -8 -8 -6 -17z"/>
<path d="M1940 2489 c-7 -11 -10 -23 -7 -25 2 -2 9 7 15 21 14 30 7 33 -8 4z"/>
<path d="M2004 2488 l-19 -23 23 19 c21 18 27 26 19 26 -2 0 -12 -10 -23 -22z"/>
<path d="M1787 2461 c-2 -10 0 -25 5 -32 8 -11 9 -10 4 3 -3 10 -1 20 4 23 12
8 13 25 1 25 -5 0 -11 -9 -14 -19z"/>
<path d="M1710 2450 c0 -5 5 -10 11 -10 5 0 7 5 4 10 -3 6 -8 10 -11 10 -2 0
-4 -4 -4 -10z"/>
<path d="M1416 2417 c3 -10 9 -15 12 -12 3 3 0 11 -7 18 -10 9 -11 8 -5 -6z"/>
<path d="M1710 2420 c0 -5 5 -10 11 -10 5 0 7 5 4 10 -3 6 -8 10 -11 10 -2 0
-4 -4 -4 -10z"/>
<path d="M1580 2405 c0 -8 2 -15 4 -15 2 0 6 7 10 15 3 8 1 15 -4 15 -6 0 -10
-7 -10 -15z"/>
<path d="M1740 2410 c0 -5 5 -10 11 -10 5 0 7 5 4 10 -3 6 -8 10 -11 10 -2 0
-4 -4 -4 -10z"/>
<path d="M1870 2409 c0 -5 5 -7 10 -4 6 3 10 8 10 11 0 2 -4 4 -10 4 -5 0 -10
-5 -10 -11z"/>
<path d="M1517 2374 c-3 -4 -2 -15 3 -25 6 -10 11 -29 12 -43 1 -15 6 -26 10
-26 5 0 5 12 1 28 -4 15 -7 37 -8 50 0 22 -6 27 -18 16z"/>
<path d="M1634 2355 c0 -28 8 -24 13 5 2 11 -1 20 -5 20 -4 0 -8 -11 -8 -25z"/>
<path d="M1246 2317 c3 -10 9 -15 12 -12 3 3 0 11 -7 18 -10 9 -11 8 -5 -6z"/>
<path d="M1417 2313 c-4 -3 -7 -11 -7 -17 0 -6 5 -5 12 2 6 6 9 14 7 17 -3 3
-9 2 -12 -2z"/>
<path d="M1288 2293 c7 -3 16 -2 19 1 4 3 -2 6 -13 5 -11 0 -14 -3 -6 -6z"/>
<path d="M1365 2290 c3 -5 8 -10 11 -10 2 0 4 5 4 10 0 6 -5 10 -11 10 -5 0
-7 -4 -4 -10z"/>
<path d="M1256 2277 c3 -10 9 -15 12 -12 3 3 0 11 -7 18 -10 9 -11 8 -5 -6z"/>
<path d="M1295 2270 c3 -5 8 -10 11 -10 2 0 4 5 4 10 0 6 -5 10 -11 10 -5 0
-7 -4 -4 -10z"/>
</g>
</svg>
